<svg width="33" height="33" viewBox="0 0 33 33" fill="none" xmlns="http://www.w3.org/2000/svg">
<path d="M28.709 5L27.5991 3.99099C28.0159 3.53244 28.6719 3.37745 29.2499 3.60092C29.8279 3.82438 30.209 4.38029 30.209 5H28.709ZM28.709 27H30.209C30.209 27.6197 29.8279 28.1756 29.2499 28.3991C28.6719 28.6225 28.0159 28.4676 27.5991 28.009L28.709 27ZM18.709 16L17.5991 17.009C17.079 16.4369 17.079 15.5631 17.5991 14.991L18.709 16ZM30.209 5V27H27.209V5H30.209ZM27.5991 28.009L17.5991 17.009L19.8189 14.991L29.8189 25.991L27.5991 28.009ZM17.5991 14.991L27.5991 3.99099L29.8189 6.00901L19.8189 17.009L17.5991 14.991Z" fill="#EAF0FF"/>
<path d="M14.709 5L13.5991 3.99099C14.0159 3.53244 14.6719 3.37745 15.2499 3.60092C15.8279 3.82438 16.209 4.38029 16.209 5H14.709ZM14.709 27H16.209C16.209 27.6197 15.8279 28.1756 15.2499 28.3991C14.6719 28.6225 14.0159 28.4676 13.5991 28.009L14.709 27ZM4.70898 16L3.59907 17.009C3.07895 16.4369 3.07895 15.5631 3.59907 14.991L4.70898 16ZM16.209 5V27H13.209V5H16.209ZM13.5991 28.009L3.59907 17.009L5.81889 14.991L15.8189 25.991L13.5991 28.009ZM3.59907 14.991L13.5991 3.99099L15.8189 6.00901L5.81889 17.009L3.59907 14.991Z" fill="#EAF0FF"/>
</svg>
