<svg width="33" height="33" viewBox="0 0 33 33" fill="none" xmlns="http://www.w3.org/2000/svg">
<path d="M5 5L6.10991 3.99099C5.69305 3.53244 5.03712 3.37745 4.4591 3.60092C3.88109 3.82438 3.5 4.38029 3.5 5H5ZM5 27H3.5C3.5 27.6197 3.88109 28.1756 4.45911 28.3991C5.03712 28.6225 5.69305 28.4676 6.10991 28.009L5 27ZM15 16L16.1099 17.009C16.63 16.4369 16.63 15.5631 16.1099 14.991L15 16ZM3.5 5V27H6.5V5H3.5ZM6.10991 28.009L16.1099 17.009L13.8901 14.991L3.89009 25.991L6.10991 28.009ZM16.1099 14.991L6.10991 3.99099L3.89009 6.00901L13.8901 17.009L16.1099 14.991Z" fill="#EAF0FF"/>
<path d="M19 5L20.1099 3.99099C19.693 3.53244 19.0371 3.37745 18.4591 3.60092C17.8811 3.82438 17.5 4.38029 17.5 5H19ZM19 27H17.5C17.5 27.6197 17.8811 28.1756 18.4591 28.3991C19.0371 28.6225 19.693 28.4676 20.1099 28.009L19 27ZM29 16L30.1099 17.009C30.63 16.4369 30.63 15.5631 30.1099 14.991L29 16ZM17.5 5V27H20.5V5H17.5ZM20.1099 28.009L30.1099 17.009L27.8901 14.991L17.8901 25.991L20.1099 28.009ZM30.1099 14.991L20.1099 3.99099L17.8901 6.00901L27.8901 17.009L30.1099 14.991Z" fill="#EAF0FF"/>
</svg>
