<svg width="33" height="33" viewBox="0 0 33 33" fill="none" xmlns="http://www.w3.org/2000/svg">
<path d="M4.7711 5.39385L5.69085 4.20892C5.23849 3.8578 4.62569 3.79486 4.11141 4.0467C3.59713 4.29854 3.2711 4.82122 3.2711 5.39385H4.7711ZM4.7711 26.5237H3.2711C3.2711 27.0963 3.59713 27.619 4.11141 27.8709C4.62569 28.1227 5.23849 28.0598 5.69085 27.7086L4.7711 26.5237ZM18.3821 15.9588L19.3019 17.1437C19.6679 16.8596 19.8821 16.4222 19.8821 15.9588C19.8821 15.4954 19.6679 15.058 19.3019 14.7738L18.3821 15.9588ZM3.2711 5.39385V26.5237H6.2711V5.39385H3.2711ZM5.69085 27.7086L19.3019 17.1437L17.4624 14.7738L3.85135 25.3388L5.69085 27.7086ZM19.3019 14.7738L5.69085 4.20892L3.85135 6.57878L17.4624 17.1437L19.3019 14.7738ZM26.6043 4.33736V27.5802H29.6043V4.33736H26.6043Z" fill="#EAF0FF"/>
</svg>
