<svg width="33" height="33" viewBox="0 0 33 33" fill="none" xmlns="http://www.w3.org/2000/svg">
<path d="M10.1666 26.8289L11.0864 28.0139C10.634 28.365 10.0212 28.4279 9.50694 28.1761C8.99265 27.9242 8.66663 27.4016 8.66663 26.8289H10.1666ZM10.1666 5.69907H8.66663C8.66663 5.12644 8.99265 4.60377 9.50694 4.35192C10.0212 4.10008 10.634 4.16302 11.0864 4.51414L10.1666 5.69907ZM23.7777 16.264L24.6975 15.0791C25.0636 15.3632 25.2777 15.8006 25.2777 16.264C25.2777 16.7274 25.0636 17.1648 24.6975 17.4489L23.7777 16.264ZM8.66663 26.8289V5.69907H11.6666V26.8289H8.66663ZM11.0864 4.51414L24.6975 15.0791L22.858 17.4489L9.24688 6.88401L11.0864 4.51414ZM24.6975 17.4489L11.0864 28.0139L9.24688 25.644L22.858 15.0791L24.6975 17.4489Z" fill="#EAF0FF"/>
</svg>
