<svg width="33" height="33" viewBox="0 0 33 33" fill="none" xmlns="http://www.w3.org/2000/svg">
<path d="M28.9378 26.8289L28.018 28.0139C28.4704 28.365 29.0832 28.4279 29.5975 28.1761C30.1117 27.9242 30.4378 27.4016 30.4378 26.8289H28.9378ZM28.9378 5.69907H30.4378C30.4378 5.12644 30.1117 4.60377 29.5975 4.35193C29.0832 4.10008 28.4704 4.16302 28.018 4.51414L28.9378 5.69907ZM15.3267 16.264L14.4069 15.0791C14.0408 15.3632 13.8267 15.8006 13.8267 16.264C13.8267 16.7274 14.0408 17.1648 14.4069 17.4489L15.3267 16.264ZM30.4378 26.8289V5.69907H27.4378V26.8289H30.4378ZM28.018 4.51414L14.4069 15.0791L16.2464 17.4489L29.8575 6.88401L28.018 4.51414ZM14.4069 17.4489L28.018 28.0139L29.8575 25.644L16.2464 15.0791L14.4069 17.4489ZM7.10443 27.8854V4.64258H4.10443V27.8854H7.10443Z" fill="#EAF0FF"/>
</svg>
